<?xml version="1.0" encoding="utf-8"?>
<!-- Generator: Adobe Illustrator 19.0.0, SVG Export Plug-In . SVG Version: 6.00 Build 0)  -->
<svg version="1.1" id="Layer_1" xmlns="http://www.w3.org/2000/svg" xmlns:xlink="http://www.w3.org/1999/xlink" x="0px" y="0px"
	 viewBox="0 0 465.7 155.5" style="enable-background:new 0 0 465.7 155.5;" xml:space="preserve">
<style type="text/css">
	.st0{fill:#CC00C2;}
</style>
<g id="XMLID_14_">
	<path id="XMLID_175_" class="st0" d="M133,4.4c-0.3-0.9-1-2.1-2.7-2.9c-0.8-0.4-1.8-0.6-3.2-0.9c-1.2-0.2-2.8-0.3-4.7-0.3
		c-1.8,0-3.4,0.1-4.7,0.3c-1.3,0.2-2.4,0.4-3.4,0.7c-1.3,0.4-2.4,1-3.1,1.9c-0.7,0.7-1.2,1.6-1.5,2.4L91.7,55.5
		c-2.2-2.8-4.7-5-7.3-6.7c-4.2-2.7-9.4-4.1-15.6-4.1c-7,0-13.8,1.3-20.2,4C42.3,51.2,36.4,55,31,59.9c-5.3,4.8-10.2,10.7-14.4,17.5
		C12.4,84.1,8.7,91.7,5.7,100c-2.6,7.1-4.3,13.9-5.2,20.3c-0.9,6.6-0.6,12.5,0.9,17.5c1.6,5.3,4.7,9.5,9.2,12.6
		c4.4,3,10.5,4.6,18.1,4.6c6.8,0,13.7-1.6,20.6-4.8c4.1-1.9,8.4-4.4,12.7-7.2l-1.2,3.4c-0.4,1.2-0.5,2.3-0.2,3.4
		c0.3,0.9,0.9,2.1,2.6,2.9c0.8,0.4,1.8,0.6,3,0.8c1.1,0.2,2.4,0.2,4.1,0.2c1.5,0,2.9-0.1,4.1-0.2c1.3-0.2,2.3-0.4,3.2-0.7
		c1.1-0.4,2.1-1,2.8-1.8c0.7-0.7,1.2-1.6,1.5-2.5l51-140.6C133.3,6.7,133.3,5.5,133,4.4z M37.1,134.1c-3.8,0-6.5-0.8-8.2-2.4
		c-1.8-1.7-2.8-3.9-3.3-6.8c-0.5-3.2-0.3-6.9,0.5-11.1c0.9-4.4,2.2-9,3.9-13.6c1.6-4.3,3.6-8.7,5.9-12.8c2.3-4.1,5.1-7.9,8.1-11.2
		c3-3.2,6.3-5.8,9.8-7.7c3.4-1.9,7.1-2.8,11-2.8c4,0,7.3,1.2,10.1,3.8c2.8,2.6,5.3,6.4,7.6,11.3l-13.1,36.1c-3.7,3.2-7.1,5.9-10.2,8
		c-3.2,2.3-6.2,4.1-8.8,5.5c-2.6,1.4-5,2.3-7.1,2.9C41.2,133.8,39.1,134.1,37.1,134.1z"/>
	<path id="XMLID_178_" class="st0" d="M176.8,128.7c-0.6-0.5-1.6-1.1-3.1-1.1c-1.3,0-2.9,0.4-5.2,1.3c-1.9,0.7-4.3,1.5-7.1,2.4
		c-2.8,0.9-6.1,1.7-9.7,2.4c-3.6,0.7-7.6,1-11.9,1c-5.2,0-9.4-0.7-12.3-2.1c-2.7-1.3-4.6-3.2-5.7-5.5c-1.1-2.5-1.5-5.7-1.1-9.4
		c0.4-3.4,1.3-5.8,2.7-11.8h60.4c2.3,0,4.7-0.6,7-2c2.4-1.5,4.2-3.8,5.4-7.2l1.2-3.2c2.3-6.4,3.7-12.6,4.1-18.3
		c0.4-5.9-0.4-11.2-2.5-15.7c-2.2-4.6-5.8-8.3-10.7-11c-4.8-2.6-11.3-4-19.2-4c-7.3,0-14.4,1.3-21.3,3.8c-6.8,2.5-13.2,6.2-19,10.9
		c-5.8,4.7-11.1,10.5-15.7,17.2c-4.6,6.7-8.5,14.3-11.5,22.7c-3.2,8.8-5,16.7-5.3,23.5c-0.3,7,0.9,13,3.6,17.8
		c2.8,4.9,7.1,8.5,12.7,11c5.4,2.3,12.3,3.5,20.5,3.5c4.6,0,9.2-0.4,13.6-1c4.3-0.7,8.2-1.5,11.6-2.3c3.5-0.9,6.4-1.8,8.7-2.7
		c3.2-1.3,4.2-1.9,4.8-2.3c0.7-0.5,1.3-1,1.8-1.6c0.6-0.6,1.1-1.3,1.5-2c0.3-0.6,0.7-1.3,1-2c0.3-0.7,0.7-1.6,1.1-2.6
		c0.5-1.4,0.9-2.5,1.1-3.5c0.3-1.2,0.4-2.2,0.3-3C178.3,130.3,177.5,129.3,176.8,128.7z M142.3,72.4c2.9-2.5,6.2-4.4,9.7-5.9
		c3.5-1.5,7.2-2.1,11.1-2.1c7.2,0,11.6,2.1,13.5,6.2c1.9,4.1,1.5,8.5-1.1,17.5h-45.1c1.1-2,2.4-4.5,3.9-6.6
		C136.7,78.1,139.3,74.9,142.3,72.4z"/>
	<path id="XMLID_181_" class="st0" d="M296.4,79.4c0.9-6.6,0.6-12.5-0.9-17.5c-1.6-5.2-4.6-9.5-9.1-12.6c-4.4-3.1-10.4-4.7-17.9-4.7
		c-3,0-6,0.3-8.9,0.9c-2.9,0.6-6,1.6-9.1,2.9c-3.1,1.3-6.4,3-9.9,5c-1.1,0.6-2.1,1.3-3.3,2l17.4-48c0.4-1.2,0.5-2.3,0.2-3.4
		c-0.3-0.8-0.9-2-2.5-2.8c-0.9-0.5-2-0.8-3.4-1c-1.2-0.2-2.7-0.2-4.6-0.2c-1.8,0-3.4,0.1-4.7,0.2c-1.4,0.2-2.6,0.4-3.6,0.8
		c-1.2,0.4-2.2,1-2.9,1.8c-0.7,0.7-1.2,1.6-1.6,2.5l-51.2,141c-0.4,1-0.5,2-0.4,2.9c0.1,0.8,0.6,2.4,2.6,3.3c0.8,0.4,1.8,0.6,3,0.8
		c1.1,0.2,2.4,0.2,4,0.2c1.6,0,3-0.1,4.1-0.2c1.2-0.2,2.2-0.4,3.1-0.7c1.1-0.4,2.1-1,2.9-1.7c0.8-0.7,1.3-1.6,1.7-2.6l2.2-6
		c0.7,0.9,1.4,1.8,2.1,2.6c1.9,2.2,4,4.1,6.2,5.6c2.3,1.5,4.8,2.6,7.4,3.3c2.6,0.7,5.5,1,8.8,1c6.9,0,13.6-1.3,19.9-3.9
		c6.2-2.6,12.2-6.3,17.6-11.2c5.3-4.8,10.2-10.7,14.6-17.5c4.3-6.7,8-14.4,11-22.8C293.8,92.6,295.5,85.8,296.4,79.4z M252.8,123.4
		c-3,3.2-6.3,5.8-9.9,7.8c-3.4,1.9-7.1,2.8-11,2.8c-4,0-7.3-1.2-10-3.8c-2.8-2.6-5.4-6.4-7.8-11.3l13.1-36c3.7-3.2,7.1-5.9,10.2-8.1
		c3.2-2.2,6.1-4.1,8.8-5.5c2.6-1.4,5-2.3,7.2-2.9c2.2-0.6,4.3-0.9,6.3-0.9c3.7,0,6.5,0.8,8.1,2.4c1.8,1.7,2.9,3.9,3.3,6.8
		c0.5,3.1,0.3,6.9-0.5,11.1c-0.9,4.4-2.2,9-3.9,13.7c-1.5,4.2-3.5,8.5-5.9,12.7C258.6,116.4,255.8,120.1,252.8,123.4z"/>
	<path id="XMLID_182_" class="st0" d="M465.6,50.6c-0.3-1.7-1.1-2.8-1.8-3.4c-0.9-0.6-1.9-1.3-3.1-1.3h-20.1l6.7-18.2
		c0.4-1.1,0.4-1.9,0.1-3c-0.2-0.8-0.8-1.9-2.3-2.8c-0.9-0.5-2-0.9-3.6-1.1c-1.2-0.2-2.7-0.2-4.6-0.2c-1.8,0-3.4,0.1-4.7,0.2
		c-1.5,0.2-2.7,0.4-3.7,0.8c-1.2,0.5-2.1,1-2.8,1.7c-0.7,0.7-1.2,1.4-1.5,2.2L416.8,46h-11.1c-1,0-2,0.5-2.9,1
		c-1,0.4-1.9,1.4-2.6,2.4c-0.6,0.7-1.2,1.7-1.8,2.7c-0.1,0.2-0.3,0.5-0.4,0.8c0.3-1.4,0.1-2.5-0.2-3.1c-0.4-0.9-1.2-1.7-2.2-2.4
		c-0.9-0.6-2.1-0.9-3.7-1.1c-1.2-0.1-2.7-0.2-4.5-0.2c-1.9,0-3.4,0.1-4.6,0.2c-1.4,0.1-2.7,0.4-3.7,0.8c-1.2,0.5-2.2,1-2.8,1.7
		c-0.7,0.7-1.2,1.5-1.6,2.5L350.8,117c-6.6,5.6-12.5,9.9-17.6,12.8c-5,2.8-9.4,4.3-13.2,4.3c-2.8,0-5-0.5-6.6-1.5
		c-1.5-0.9-2.5-2.2-3-3.9c-0.7-1.9-0.8-4.4-0.5-7.2c0.4-3.1,1.5-7.4,3.5-12.7l20.1-55.3c0.5-1.2,0.5-2.4,0.1-3.5
		c-0.4-1.1-1.2-2-2.4-2.6c-0.9-0.5-2.1-0.9-3.7-1c-1.2-0.1-2.7-0.2-4.5-0.2c-1.8,0-3.3,0.1-4.5,0.2c-1.4,0.1-2.7,0.4-3.8,0.8
		c-1.2,0.5-2.2,1-2.8,1.7c-0.7,0.7-1.2,1.5-1.6,2.5L289.3,109c-2.6,7.1-4.2,13.2-4.8,18.2c-0.6,5.3-0.2,10,1.3,14.1
		c1.6,4.3,4.5,7.7,8.7,10.1c4,2.4,9.5,3.6,16.4,3.6c5.8,0,12.1-1.5,18.7-4.4c4.2-1.8,8.7-4.4,13.4-7.6l-1.2,3.3
		c-0.4,1.1-0.5,2.1-0.3,3c0.1,0.7,0.6,2.1,2.3,3.1c0.8,0.5,1.9,0.8,3.2,1c1.1,0.2,2.5,0.2,4.3,0.2c1.6,0,3-0.1,4.2-0.2
		c1.3-0.2,2.4-0.4,3.4-0.8c1.1-0.4,2-1,2.7-1.7c0.7-0.7,1.2-1.5,1.6-2.5l32.3-89c-0.3,1.4-0.3,3-0.2,4c0.5,2.5,2.4,4.6,4.9,4.6h9
		l-18.7,51c-2.1,5.7-3.4,10.5-3.8,14.8c-0.5,4.6,0,8.4,1.6,11.6c1.6,3.3,4.3,5.7,8,7.3c3.5,1.5,7.8,2.2,13.1,2.2
		c1.7,0,3.5-0.1,5.3-0.4c1.8-0.2,3.5-0.5,5.1-0.8c1.7-0.3,3.3-0.8,4.8-1.4c1.6-0.6,2.8-1.2,3.8-2c1.1-0.8,2.1-2,3-3.5
		c0.8-1.4,1.6-3.1,2.4-5.4c0.5-1.4,0.9-2.6,1.1-3.6c0.2-1,0.3-1.9,0.3-2.6c0-2-1-3-1.7-3.5c-0.8-0.5-1.7-0.8-2.6-0.8
		c-0.9,0-2,0.2-3.2,0.7c-0.8,0.3-1.7,0.6-2.7,0.9c-1,0.3-2.2,0.6-3.5,0.9c-1.2,0.3-2.4,0.4-3.8,0.4c-5.1,0-5.5-1.9-5.6-2.7
		c-0.4-1.9-0.3-5.3,2.4-12.7L433.1,68h22.3c1.9,0,3.7-1.4,5.3-3.1c1.3-1.4,2.5-3.8,3.6-6.7c0.5-1.5,0.9-2.9,1.1-3.9
		C465.7,52.9,465.8,51.6,465.6,50.6z"/>
</g>
</svg>
