<?xml version="1.0" encoding="utf-8"?>
<!-- Generator: Adobe Illustrator 19.0.0, SVG Export Plug-In . SVG Version: 6.00 Build 0)  -->
<svg version="1.1" id="Layer_1" xmlns="http://www.w3.org/2000/svg" xmlns:xlink="http://www.w3.org/1999/xlink" x="0px" y="0px"
	 viewBox="0 0 387 155.5" style="enable-background:new 0 0 387 155.5;" xml:space="preserve">
<style type="text/css">
	.st0{fill:#CC00C2;}
</style>
<g id="XMLID_60_">
	<path id="XMLID_71_" class="st0" d="M10.7,154.1c-1.8,0-3.3-0.1-4.5-0.2c-1.4-0.2-2.5-0.5-3.4-0.9c-1.6-0.8-2.3-1.9-2.6-2.7
		c-0.4-1-0.4-1.1,0.1-2.3l28.7-78H20c-2.6,0-4.5-2.8-4.9-5.4c-0.2-1.6,0.2-4.4,1.3-7.5c0.5-1.5,1.1-3,1.6-4c0.6-1.1,1.2-2.2,1.8-2.9
		c0.8-0.9,1.6-0.8,2.5-1.3c0.9-0.4,1.9,0.1,2.9,0.1h11.3l2.8-8.7c2.5-6.8,5.3-13.1,8.3-18c3.1-5,6.6-9.4,10.5-12.6
		c3.9-3.3,8.3-5.8,12.9-7.3C75.7,0.8,80.9,0,86.4,0c2.7,0,5.2,0.2,7.5,0.7c2.4,0.5,4.2,1.1,5.5,1.7c1.6,0.8,2.6,1.6,3.2,2.5
		c0.5,0.9,0.9,1.9,0.9,3.1c0.1,1-0.1,2.1-0.4,3.3c-0.3,1-0.6,2.3-1.2,3.7c-0.5,1.5-1,2.7-1.6,3.6c-0.5,1-1,1.7-1.4,2.3
		c-0.6,0.9-1.3,1.5-2.1,1.9c-0.8,0.4-1.6,0.6-2.5,0.6c-1,0-2-0.3-3-0.8c-0.6-0.3-1.3-0.6-2.1-1c-0.8-0.3-1.7-0.6-2.9-0.9
		c-1.1-0.3-2.5-0.4-4.1-0.4c-2.2,0-4.2,0.4-6,1.1c-1.7,0.7-3.4,1.8-4.8,3.3c-1.6,1.6-3.1,3.7-4.4,6.3c-1.5,2.7-2.9,6.9-4.3,10.9
		L60.4,49h16.9c1.3,0,2.4-0.5,3.2,0.2c0.9,0.7,1.4,1.3,1.6,2.6c0.2,0.9,0.1,1.8-0.1,3c-0.2,1.1-0.6,2.3-1.1,3.8
		c-1.1,2.9-2.2,6.2-3.6,7.6C75.8,68,74,70,72.1,70H53l-29.5,80c-0.4,1-0.9,1.3-1.7,2c-0.7,0.7-1.6,0.9-2.8,1.3
		c-1,0.4-2.2,0.5-3.6,0.6C14.1,154.2,12.5,154.1,10.7,154.1z"/>
	<path id="XMLID_69_" class="st0" d="M99.2,14c-0.5,1.3-0.9,2.4-1.4,3.2c-0.4,0.8-0.8,1.5-1.2,1.9c-0.4,0.5-0.7,0.8-1,1
		c-0.3,0.2-0.7,0.3-1.1,0.3c-0.5,0-1-0.2-1.7-0.5c-0.6-0.3-1.4-0.7-2.3-1.1c-0.9-0.4-2-0.7-3.4-1.1c-1.3-0.3-2.9-0.5-4.8-0.5
		c-2.6,0-5,0.4-7.1,1.3c-2.1,0.8-4.1,2.2-5.9,4c-1.8,1.8-3.4,4.1-4.9,7c-1.5,2.8-3,6.3-4.5,10.4l-3.7,10.3h21.2c0.6,0,1,0.1,1.3,0.4
		c0.3,0.2,0.5,0.7,0.6,1.3c0.1,0.6,0.1,1.4-0.1,2.3c-0.2,0.9-0.5,2-1,3.4c-0.9,2.5-1.9,4.4-2.9,5.5c-1,1.1-2.1,1.7-3.1,1.7H50.9
		l-30.2,83.2c-0.2,0.6-0.5,1-0.9,1.4c-0.4,0.4-1,0.7-1.8,1c-0.8,0.3-1.7,0.5-2.9,0.6c-1.2,0.1-2.6,0.2-4.3,0.2s-3.1-0.1-4.1-0.2
		c-1.1-0.1-1.9-0.4-2.5-0.6c-0.6-0.3-0.9-0.6-1.1-1c-0.1-0.4-0.1-0.9,0.1-1.4l30.2-83.2H20c-1.1,0-1.8-0.6-1.9-1.7
		c-0.2-1.1,0.2-3,1.1-5.5c0.5-1.3,1-2.5,1.4-3.4c0.5-0.9,1-1.7,1.5-2.3c0.5-0.6,1-1,1.5-1.3c0.5-0.2,1-0.4,1.6-0.4h13.4l3.6-9.8
		c2.4-6.6,5.1-12.3,8-17c3-4.7,6.2-8.6,9.9-11.6c3.6-3,7.6-5.3,12-6.7c4.4-1.4,9.1-2.2,14.3-2.2c2.5,0,4.8,0.2,6.9,0.7
		c2.2,0.5,3.8,0.9,4.8,1.5c1.1,0.5,1.7,1,2,1.4s0.4,1,0.5,1.6c0,0.7-0.1,1.5-0.3,2.4C100.1,11.5,99.7,12.7,99.2,14z"/>
	<path id="XMLID_68_" class="st0" d="M64.6,154.1c-1.8,0-3.3-0.1-4.5-0.2c-1.4-0.2-2.5-0.5-3.4-0.9c-1.7-0.8-2.3-2-2.6-2.9
		c-0.3-1-0.2-2.1,0.2-3.2L88.8,52c0.3-0.9,0.8-1.7,1.4-2.4c0.7-0.7,1.5-1.3,2.7-1.8c1-0.4,2.2-0.7,3.5-0.9c1.1-0.1,2.5-0.2,4.3-0.2
		c1.7,0,3,0.1,4.1,0.2c1.5,0.2,2.7,0.5,3.5,1.2c1.3,0.9,1.8,2,2,2.7c0.3,1,0.2,2.1-0.2,3.2l-1,2.7c0.7-0.6,1.4-1.1,2-1.6
		c3.3-2.5,6.3-4.5,8.9-5.9c2.8-1.5,5.4-2.5,7.8-3.1c2.4-0.6,4.8-0.9,7-0.9c1,0,2.1,0.1,3.3,0.2c1.2,0.1,2.5,0.3,3.8,0.6
		c1.3,0.3,2.5,0.7,3.5,1.1c1.4,0.6,2.3,1.2,3,1.9c0.7,0.8,1.1,1.7,1.2,2.7c0,0.6,0,1.2-0.1,1.9c-0.1,0.7-0.3,1.5-0.7,2.6
		c-0.3,1-0.8,2.3-1.4,3.9c-0.6,1.6-1.1,3-1.6,4.1c-0.5,1.3-1.1,2.3-1.6,3c-0.6,0.9-1.3,1.5-2,2c-0.9,0.7-2.1,1.1-3.3,1.1
		c-1,0-2-0.3-3.1-0.7c-0.6-0.3-1.3-0.6-2.1-0.8c-0.8-0.3-1.8-0.6-2.8-0.8c-0.9-0.2-2-0.3-3.3-0.3c-1.4,0-2.9,0.3-4.5,0.9
		c-1.7,0.6-3.7,1.7-6,3.2c-2.3,1.5-5,3.6-7.8,6.2c-2.8,2.5-6.1,5.6-9.7,9.2l-22.4,61.8c-0.4,1-0.9,1.9-1.7,2.6
		c-0.7,0.6-1.6,1.2-2.7,1.6c-1,0.4-2.1,0.6-3.6,0.8C68.1,154.1,66.5,154.1,64.6,154.1z"/>
	<path id="XMLID_66_" class="st0" d="M144.8,59.2c-0.6,1.5-1.1,2.8-1.5,3.9c-0.5,1.1-0.9,1.9-1.3,2.5c-0.4,0.6-0.9,1.1-1.3,1.4
		c-0.4,0.3-0.9,0.5-1.5,0.5c-0.6,0-1.2-0.2-1.9-0.5c-0.7-0.3-1.5-0.6-2.4-0.9c-0.9-0.3-1.9-0.6-3.1-0.9c-1.2-0.3-2.5-0.4-4-0.4
		c-1.8,0-3.6,0.4-5.5,1.1c-1.9,0.7-4.1,1.9-6.6,3.5c-2.4,1.6-5.2,3.8-8.2,6.4c-3,2.7-6.4,5.9-10.3,9.8l-22.7,62.4
		c-0.2,0.6-0.5,1-0.9,1.4c-0.4,0.4-1,0.7-1.7,1s-1.7,0.5-2.9,0.6c-1.2,0.1-2.6,0.2-4.4,0.2c-1.7,0-3.1-0.1-4.1-0.2
		c-1.1-0.1-1.9-0.4-2.5-0.6c-0.6-0.3-0.9-0.6-1-1c-0.1-0.4-0.1-0.9,0.1-1.4L91.6,53c0.2-0.6,0.5-1,0.8-1.4c0.4-0.4,0.9-0.7,1.6-1.1
		c0.7-0.3,1.6-0.5,2.7-0.6c1-0.1,2.3-0.2,4-0.2c1.5,0,2.8,0.1,3.8,0.2c1,0.1,1.7,0.3,2.1,0.6c0.4,0.3,0.7,0.7,0.8,1.1
		c0.1,0.4,0.1,0.9-0.1,1.4l-5,13.8c4-3.8,7.5-6.9,10.7-9.3c3.1-2.4,6-4.3,8.5-5.6c2.5-1.4,4.9-2.3,7.1-2.8c2.2-0.5,4.3-0.8,6.3-0.8
		c0.9,0,1.9,0.1,3.1,0.2c1.1,0.1,2.3,0.3,3.4,0.6c1.2,0.3,2.2,0.6,3.1,0.9c0.9,0.4,1.5,0.7,1.8,1.1c0.3,0.4,0.5,0.7,0.5,1
		c0,0.3,0,0.7-0.1,1.2c-0.1,0.5-0.3,1.2-0.6,2.2C145.8,56.3,145.3,57.6,144.8,59.2z"/>
	<path id="XMLID_63_" class="st0" d="M159.6,155.5c-8.2,0-15.1-1.3-20.4-3.8c-5.6-2.6-9.7-6.5-12.2-11.5c-2.5-4.9-3.5-10.8-3.1-17.7
		c0.4-6.6,2.1-14.1,5.1-22.3c2.9-7.9,6.6-15.3,11.1-22c4.5-6.7,9.8-12.6,15.8-17.5c6-4.9,12.7-8.7,20-11.5
		c7.3-2.7,15.2-4.1,23.6-4.1c8.2,0,15.1,1.3,20.4,3.8c5.6,2.6,9.7,6.5,12.2,11.5c2.5,4.9,3.6,10.8,3.2,17.7
		c-0.4,6.6-2.1,14.1-5,22.2c-2.9,7.9-6.6,15.3-11.1,22c-4.5,6.7-9.9,12.6-15.8,17.5c-6,4.9-12.7,8.8-20,11.5
		C175.9,154.1,167.9,155.5,159.6,155.5z M193.5,65.8c-4.8,0-9.2,0.8-13.2,2.5c-4,1.7-7.8,4.1-11.1,7.2c-3.4,3.1-6.5,6.9-9.2,11.2
		c-2.7,4.4-5,9.2-6.9,14.4c-1.8,5-3.1,9.7-3.7,14.1c-0.6,4.1-0.5,7.7,0.4,10.7c0.8,2.7,2.4,4.8,4.8,6.5c2.5,1.7,6.3,2.5,11.3,2.5
		c4.7,0,9.1-0.8,13.1-2.5c4.1-1.7,7.8-4.1,11.2-7.1c3.4-3.1,6.4-6.9,9.1-11.2c2.7-4.4,5-9.3,6.9-14.5c1.8-4.9,3-9.6,3.7-14
		c0.6-4.1,0.5-7.7-0.3-10.8c-0.8-2.7-2.3-4.9-4.7-6.5C202.2,66.7,198.4,65.8,193.5,65.8z"/>
	<path id="XMLID_62_" class="st0" d="M227.3,99.4c-2.8,7.7-6.4,14.8-10.8,21.3c-4.4,6.5-9.5,12.1-15.2,16.8
		c-5.8,4.7-12.1,8.4-19.2,11c-7,2.6-14.6,4-22.6,4c-7.8,0-14.2-1.2-19.1-3.5c-5-2.3-8.6-5.7-10.8-10.1c-2.3-4.4-3.2-9.8-2.8-16.1
		c0.4-6.3,2.1-13.5,5-21.5c2.8-7.7,6.4-14.8,10.8-21.3c4.4-6.5,9.4-12.1,15.2-16.8c5.7-4.7,12.1-8.4,19.1-11
		c7-2.6,14.5-3.9,22.6-3.9c7.8,0,14.2,1.2,19.1,3.5s8.6,5.7,10.8,10.1c2.3,4.4,3.2,9.8,2.8,16.1C231.9,84.3,230.2,91.4,227.3,99.4z
		 M208.9,100.5c1.9-5.1,3.1-10,3.8-14.5c0.7-4.6,0.6-8.6-0.4-12c-0.9-3.4-2.9-6.2-6-8.2c-3-2-7.3-3-12.9-3c-5.2,0-10,0.9-14.3,2.7
		c-4.4,1.8-8.4,4.4-12,7.7c-3.6,3.3-6.8,7.3-9.7,11.9c-2.8,4.6-5.2,9.6-7.2,15c-1.9,5.2-3.2,10.1-3.9,14.7c-0.7,4.6-0.6,8.6,0.4,12
		c1,3.4,3,6.1,6,8.1c3,2,7.3,3,12.9,3c5.1,0,9.9-0.9,14.3-2.7c4.4-1.8,8.4-4.4,12-7.7c3.6-3.3,6.8-7.2,9.6-11.8
		C204.5,111,206.9,106,208.9,100.5z"/>
	<path id="XMLID_61_" class="st0" d="M351.5,154.1c-1.9,0-3.4-0.1-4.6-0.2c-1.4-0.2-2.5-0.5-3.4-0.9c-1.6-0.8-2.3-1.9-2.6-2.7
		c-0.4-1-0.4-2.2,0.1-3.5L362,89.2c1.4-3.8,2.3-7.3,2.8-10.4c0.4-2.9,0.4-5.3-0.2-7.3c-0.5-1.7-1.4-2.9-2.7-3.8
		c-1.4-0.9-3.5-1.4-6.1-1.4c-3.4,0-7.5,1.4-12.2,4.2c-4.8,2.9-10.7,7.2-17.3,12.8l-23.8,65.5c-0.4,1-0.9,1.9-1.7,2.6
		c-0.7,0.7-1.6,1.2-2.8,1.6c-1,0.4-2.2,0.6-3.6,0.8c-1.3,0.2-2.9,0.2-4.7,0.2c-1.8,0-3.2-0.1-4.5-0.2c-1.5-0.2-2.6-0.5-3.5-0.9
		c-1.7-0.8-2.3-2-2.6-2.9c-0.3-1-0.2-2.1,0.2-3.2l20.9-57.7c1.4-3.8,2.3-7.3,2.7-10.3c0.4-2.9,0.3-5.4-0.3-7.3
		c-0.5-1.7-1.3-2.9-2.6-3.8c-1.4-0.9-3.4-1.4-6-1.4c-3.4,0-7.6,1.4-12.3,4.2c-4.9,2.9-10.7,7.2-17.2,12.8l-23.8,65.6
		c-0.4,1-0.9,1.9-1.7,2.6c-0.7,0.6-1.6,1.2-2.7,1.6c-1,0.4-2.1,0.6-3.6,0.8c-1.3,0.2-2.9,0.2-4.8,0.2c-1.8,0-3.3-0.1-4.5-0.2
		c-1.4-0.2-2.5-0.5-3.4-0.9c-1.7-0.8-2.3-2-2.6-2.9c-0.3-1-0.2-2.1,0.2-3.2L252.3,52c0.3-0.9,0.8-1.7,1.4-2.4
		c0.7-0.7,1.5-1.3,2.7-1.8c1-0.4,2.2-0.7,3.5-0.9c1.1-0.1,2.5-0.2,4.3-0.2c1.7,0,3,0.1,4.1,0.2c1.5,0.2,2.7,0.5,3.5,1.2
		c1.3,0.9,1.8,2,2,2.7c0.3,1,0.2,2.1-0.2,3.2l-1.1,3.2c4.6-3.2,8.9-5.7,12.8-7.5c6.4-2.9,12.5-4.4,18-4.4c4.2,0,7.9,0.5,11,1.5
		c3.2,1,5.9,2.6,8,4.5c2.1,2,3.7,4.3,4.7,7.1c0.4,1,0.7,2.1,0.9,3.2c2.9-2.2,5.7-4.1,8.3-5.7c3.8-2.5,7.4-4.5,10.7-6
		c3.3-1.5,6.5-2.7,9.4-3.4c3-0.7,5.9-1.1,8.6-1.1c6.8,0,11.9,1.2,15.8,3.7c3.9,2.5,6.7,5.9,8.2,10.1c1.4,4,1.8,8.7,1.1,14
		c-0.7,5-2,10.3-4,15.8l-21.8,60c-0.4,1-0.9,1.9-1.7,2.6c-0.7,0.6-1.6,1.2-2.7,1.6c-1,0.4-2.1,0.6-3.6,0.8
		C354.9,154.1,353.3,154.1,351.5,154.1z"/>
	<path id="XMLID_151_" class="st0" d="M361.4,147.9c-0.2,0.6-0.5,1-0.9,1.4c-0.4,0.4-1,0.7-1.7,1c-0.7,0.3-1.7,0.5-2.9,0.6
		c-1.2,0.1-2.6,0.2-4.3,0.2c-1.8,0-3.2-0.1-4.2-0.2c-1.1-0.1-1.9-0.4-2.5-0.6c-0.6-0.3-0.9-0.6-1.1-1c-0.1-0.4-0.1-0.9,0.1-1.4
		l20.9-57.7c1.5-4,2.4-7.7,2.9-11c0.5-3.3,0.4-6.1-0.3-8.5c-0.7-2.4-2-4.2-3.9-5.5c-1.9-1.3-4.5-1.9-7.7-1.9c-4,0-8.6,1.5-13.8,4.6
		c-5.2,3.1-11.3,7.6-18.3,13.6l-24.1,66.3c-0.2,0.6-0.5,1-0.9,1.4c-0.4,0.4-1,0.7-1.8,1c-0.8,0.3-1.7,0.5-2.9,0.6
		c-1.2,0.1-2.6,0.2-4.3,0.2c-1.6,0-3-0.1-4.1-0.2c-1.1-0.1-1.9-0.4-2.5-0.6c-0.6-0.3-0.9-0.6-1-1c-0.1-0.4-0.1-0.9,0.1-1.4
		l20.9-57.7c1.5-4,2.4-7.7,2.8-11c0.4-3.3,0.3-6.1-0.4-8.5c-0.7-2.4-2-4.2-3.9-5.5c-1.9-1.3-4.5-1.9-7.7-1.9c-4,0-8.6,1.5-13.8,4.6
		c-5.2,3.1-11.3,7.6-18.2,13.6L238,147.9c-0.2,0.6-0.5,1-0.9,1.4c-0.4,0.4-1,0.7-1.7,1s-1.7,0.5-2.9,0.6c-1.2,0.1-2.6,0.2-4.4,0.2
		c-1.7,0-3.1-0.1-4.1-0.2c-1.1-0.1-1.9-0.4-2.5-0.6c-0.6-0.3-0.9-0.6-1-1c-0.1-0.4-0.1-0.9,0.1-1.4L255.1,53c0.2-0.6,0.5-1,0.8-1.4
		c0.4-0.4,0.9-0.7,1.6-1.1c0.7-0.3,1.6-0.5,2.7-0.6c1-0.1,2.3-0.2,4-0.2c1.5,0,2.8,0.1,3.8,0.2c1,0.1,1.7,0.3,2.1,0.6
		c0.4,0.3,0.7,0.7,0.8,1.1c0.1,0.4,0.1,0.9-0.1,1.4l-4.6,12.5c7.5-6,14.3-10.3,20.3-13.1c6-2.8,11.6-4.2,16.7-4.2
		c3.9,0,7.3,0.5,10.1,1.4c2.8,0.9,5.1,2.2,6.9,3.8c1.8,1.7,3.1,3.6,4,5.9c0.9,2.3,1.3,4.8,1.4,7.6c4.4-3.4,8.5-6.4,12.2-8.7
		c3.7-2.4,7.2-4.3,10.3-5.8c3.2-1.5,6.1-2.5,8.9-3.2c2.7-0.7,5.4-1,7.9-1c6.1,0,10.9,1.1,14.2,3.2c3.4,2.1,5.7,5,6.9,8.6
		c1.3,3.6,1.6,7.8,0.9,12.6c-0.7,4.8-2,9.9-3.9,15.2L361.4,147.9z"/>
</g>
</svg>
