<?xml version="1.0" encoding="utf-8"?>
<!-- Generator: Adobe Illustrator 19.0.0, SVG Export Plug-In . SVG Version: 6.00 Build 0)  -->
<svg version="1.1" id="Layer_1" xmlns="http://www.w3.org/2000/svg" xmlns:xlink="http://www.w3.org/1999/xlink" x="0px" y="0px"
	 viewBox="0 0 496.9 155.5" style="enable-background:new 0 0 496.9 155.5;" xml:space="preserve">
<style type="text/css">
	.st0{fill:#CC00C2;}
</style>
<g id="XMLID_19_">
	<path id="XMLID_146_" class="st0" d="M121.5,27.9c0-1.6-0.6-1.9-0.4-5.1l7.9,0c2.2,0,4.3-0.6,6.3-2.7c1.6-1.7,2.7-3.5,3.8-6.7
		c1-3.1,1.3-5,1-6.7c-0.4-2.3-2.2-2.9-4.6-2.9l-29.6,0.1c-1.2-3.2-4.2-1.7-6.6-2c-2.6-0.3-5.3-1.2-8.4-1.2c-5.9,0-11.8,0.9-17.4,2.7
		c-5.7,1.8-11.1,4.5-15.9,7.9c-4.8,3.4-9.2,7.7-12.9,12.6c-3.7,4.9-6.6,10.5-8.7,16.6c-1.8,5.3-2.6,9.9-2.4,13.7
		c0.1,2.9,0.7,5.5,1.5,8c-3,2.5-5.8,5.3-8.3,8.3c-3.4,4-6,8.6-7.7,13.6c-1.3,3.9-1.5,7.5-0.6,10.8c0.6,2.2,1.7,4.1,3.4,5.7
		c-1.5,1-2.9,2-4.2,3.1c-2.6,2.1-5.1,4.3-7.2,6.6c-2.1,2.3-4,4.8-5.5,7.4c-1.5,2.5-2.7,5.2-3.6,7.9c-1.5,4.3-1.9,8.4-1.3,12.2
		c0.6,3.8,2.5,7.1,5.6,9.8c3,2.6,7.3,4.6,12.8,6c5.4,1.4,12.2,2.1,20.4,2.1c8.6,0,16.4-1,23.4-2.9c7.1-1.9,13.4-4.7,18.8-8.1
		c5.5-3.5,10.1-7.6,13.7-12.1c3.6-4.6,6.3-9.4,8-14.5c1.6-4.9,2.1-9.2,1.5-13c-0.7-3.7-2.3-6.9-4.8-9.4c-2.5-2.5-5.7-4.4-9.7-5.7
		c-3.9-1.3-8.5-2-13.6-2.2l-25.5-1.1c-3.3-0.1-5.7-0.9-7.1-2.2c-1.5-1.4-1.3-2.8-1-3.9c0.6-1.7,1.4-3.2,2.4-4.5
		c0.5-0.6,1.1-1.2,1.6-1.8c1.5,1.1,3.5,2.1,6,2.9c3.5,1.2,7.5,1.7,11.8,1.7c6.1,0,12-0.9,17.5-2.7c5.7-1.8,11-4.4,15.8-7.8
		c4.9-3.4,9.2-7.6,12.9-12.5c3.6-4.8,6.5-10.5,8.6-16.7C120.7,35.3,121.5,31.4,121.5,27.9z M86.8,52.8c-2,1.7-4.2,3-6.7,4
		c-2.6,1-5.5,1.5-8.6,1.5c-5.9,0-9.7-1.5-11.8-4.7c-2.1-3.2-2.1-7.6-0.2-13.4c0.9-2.6,2.1-5.2,3.7-7.6c1.5-2.3,3.3-4.4,5.3-6.1
		c2-1.7,4.3-3.1,6.7-4.1c2.5-1,5.4-1.5,8.4-1.5c6,0,9.9,1.5,12,4.8c2,3.2,2.1,7.7,0,13.8c-0.9,2.6-2.1,5-3.6,7.4
		C90.6,49.1,88.8,51.1,86.8,52.8z M74.8,124.9c-1.4,1.8-3.3,3.4-5.6,4.9c-2.5,1.5-5.6,2.8-9.2,3.8c-3.8,1-8.3,1.5-13.5,1.5
		c-8.1,0-14.1-1.1-17.7-3.4c-3.1-1.9-4-4.5-2.8-8.1c0.4-1.3,1-2.6,1.7-3.9c0.6-1.2,1.6-2.4,2.7-3.6c1.2-1.3,2.8-2.8,4.6-4.3
		c1.6-1.3,3.6-2.7,5.9-4.2l24.3,0.8c5.3,0.1,9.1,1.2,11.4,3.2c2,1.7,2.5,4.1,1.4,7.3C77.4,121,76.3,123,74.8,124.9z"/>
	<path id="XMLID_156_" class="st0" d="M146.5,63.9l62.1-0.1c2.6,0,5.5-0.2,8.1-1.9c2.8-1.9,5.1-4,6.4-7.9l1.1-3.3
		c2.3-6.8,3.1-13.3,3.4-19.3c0.3-6.2-1.2-11.6-3.4-16.2c-2.3-4.6-5.9-8.3-10.9-11c-5-2.7-11.6-4.1-19.8-4c-7.7,0-15.2,1.4-22.3,4.1
		c-7.2,2.8-14,6.8-20.1,11.9c-6.1,5.1-11.6,11.4-16.4,18.6c-4.7,7.2-8.6,15.3-11.6,24.2c-3.1,9.4-4.8,17.7-5,24.8
		c-0.2,7.3,1.2,13.4,4,18.2c2.9,4.9,7.2,8.6,13,11c5.6,2.4,12.8,3.6,21.3,3.6c4.9,0,9.6-0.4,14.2-1.1c4.5-0.7,8.6-1.6,12.1-2.5
		c3.7-1,6.7-1.9,9.2-2.9c3.3-1.4,4.6-2,5.4-2.7c0.8-0.6,1.5-1.2,2.1-1.9c0.7-0.7,1.3-1.6,1.8-2.5c0.3-0.6,0.7-1.4,1.1-2.2
		c0.3-0.8,0.7-1.7,1.1-2.8c0.5-1.4,0.8-2.7,1.1-3.8c0.3-1.2,0.4-2.2,0.3-3.1c-0.1-1.1-0.5-2-1.3-2.6c-0.7-0.6-1.6-0.9-2.8-0.9
		c-1.4,0-3.2,0.5-5.7,1.4c-1.9,0.8-4.4,1.6-7.3,2.5c-2.9,0.9-6.2,1.7-10,2.5c-3.7,0.7-7.8,1.1-12.3,1.1c-5.5,0-10-0.9-13.2-2.4
		c-3.1-1.5-5.3-3.8-6.6-6.6c-1.3-2.8-1.7-6.6-1.4-10.6C144.3,72.4,144.5,70.2,146.5,63.9z M164.8,29c2.8-2.5,6-4.5,9.5-6
		c3.4-1.5,7.2-2.3,11.2-2.3c7.9,0,12.9,2.1,15.1,6.9c2,4.3,1.7,10.9-0.2,17.2L153,44.9c1.4-3.2,2.5-4.8,4.1-7.3
		C159.4,34.2,161.9,31.5,164.8,29z"/>
	<path id="XMLID_157_" class="st0" d="M327.4,28c0.5-5.5,0.4-10.4-1.3-14.5c-1.7-4.2-4.7-7.5-8.8-10c-4.1-2.5-9.9-3.7-16.9-3.7
		c-6.1,0-13,1.6-20.1,4.8c-4.7,2.1-8,5.1-15.5,8.9l1.8-5.5c0.4-1.2,0.9-2.3,0.6-3.2c-0.3-0.8-0.4-1.6-1.2-2.2
		c-0.8-0.6-1.9-0.9-3.3-1.1c-1.1-0.1-2.5-0.2-4.3-0.2c-1.8,0-3.3,0.1-4.5,0.2c-1.5,0.2-2.8,0.5-3.9,1c-1.4,0.6-2.6,1.4-3.5,2.4
		c-0.8,0.9-1.4,1.9-1.8,3L211,108.5c-0.4,1.2-0.4,2.3-0.2,3.2c0.3,1,1,1.7,2.1,2.3c0.8,0.4,1.9,0.7,3.3,0.9c1.3,0.2,2.8,0.2,4.7,0.2
		c2,0,3.7-0.1,5-0.3c1.6-0.2,2.9-0.5,4-0.9c1.3-0.5,2.6-1.2,3.5-2.1c1-0.9,2-2.1,2.4-3.4l23.2-69c5-5.6,12-10,17-12.9
		c5-2.9,9.1-4.3,13-4.3c3,0,5.4,0.6,7.3,1.7c1.8,1.1,2.9,2.6,3.6,4.7c0.7,2.2,0.6,4.9,0.3,8c-0.3,3.2-2.1,7.6-3.9,13l-19.8,58.8
		c-0.4,1.3,0.3,2.4,0.6,3.4c0.3,0.9,1.7,1.6,2.7,2.1c0.8,0.4,1.9,0.7,3.3,0.9c1.3,0.2,2.8,0.2,4.8,0.2c1.9,0,3.4-0.1,4.8-0.3
		c1.6-0.2,2.7-0.5,3.8-0.9c1.3-0.5,2.3-1.2,3.2-2.1c1-0.9,1.3-2.1,1.7-3.4l20.6-61.2C324.9,39.8,326.9,33.4,327.4,28z"/>
	<path id="XMLID_158_" class="st0" d="M393.1,23.8c1.1,0.3,2.1,0.6,3,0.9c0.9,0.3,1.7,0.6,2.3,0.9c1.1,0.5,2.1,0.7,3,0.7
		c1.8,0,3.2-0.8,4.1-1.4c0.9-0.7,1.7-1.6,2.5-2.6c0.6-0.9,1.2-2,1.8-3.5c0.5-1.2,1-2.6,1.6-4.3c0.6-1.8,1-3.2,1.4-4.2
		c0.4-1.2,0.6-2.1,0.7-2.8c0.1-0.7,0.1-1.4,0.1-1.9c-0.1-0.8-0.4-1.5-1-2.2c-0.5-0.6-1.4-1.2-2.7-1.7c-1-0.4-2.2-0.8-3.5-1.1
		c-1.3-0.3-2.7-0.5-3.9-0.7c-1.3-0.1-2.4-0.2-3.4-0.2c-2.4,0-4.8,0.3-7.4,1c-2.6,0.7-5.3,1.8-8.3,3.5c-2.8,1.6-5.7,3.7-9.2,6.4
		c-1,0.8-2.2,1.6-2.5,2.5l1.7-5.1c0.4-1.2-0.1-2.3-0.4-3.2c-0.3-0.8-1.4-1.6-2.2-2.2c-0.8-0.6-1.9-0.9-3.4-1.1
		c-1.1-0.1-2.6-0.2-4.3-0.2c-1.8,0-3.4,0.1-4.5,0.2c-1.5,0.2-2.9,0.5-4.1,1c-1.4,0.6-2.9,1.4-3.8,2.4c-0.8,0.9-2,1.9-2.3,3
		l-33.8,100.4c-0.4,1.2,0.1,2.3,0.4,3.2c0.3,1,1.6,1.7,2.7,2.3c0.8,0.4,1.9,0.7,3.3,0.9c1.3,0.2,2.8,0.2,4.7,0.2
		c2,0,3.5-0.1,4.9-0.3c1.6-0.2,2.8-0.5,3.9-0.9c1.3-0.5,2.3-1.2,3.3-2.1c1-0.9,1.4-2.1,1.9-3.4l21.9-65.1c4.4-3.7,7.1-6.8,9.9-9.4
		c2.9-2.6,5.8-4.8,8.1-6.3c2.2-1.5,4.1-2.5,5.8-3.2c1.6-0.6,3.1-0.9,4.5-0.9C390.9,23.4,392.1,23.5,393.1,23.8z"/>
	<path id="XMLID_161_" class="st0" d="M493.2,14.6c-2.3-4.6-5.9-8.3-10.9-11c-5-2.7-11.6-4.1-19.8-4c-7.7,0-15.2,1.4-22.3,4.1
		c-7.2,2.8-14,6.8-20.1,11.9c-6.1,5.1-11.6,11.4-16.4,18.6c-4.7,7.2-8.6,15.3-11.6,24.2c-3.1,9.4-4.8,17.7-5,24.8
		c-0.2,7.3,1.2,13.4,4,18.2c2.9,4.9,7.2,8.6,13,11c5.6,2.4,12.8,3.6,21.3,3.6c4.9,0,9.6-0.4,14.2-1.1c4.5-0.7,8.6-1.6,12.1-2.5
		c3.7-1,6.7-1.9,9.2-2.9c3.3-1.4,4.6-2,5.4-2.7c0.8-0.6,1.5-1.2,2.1-1.9c0.7-0.7,1.3-1.6,1.8-2.5c0.3-0.6,0.7-1.4,1.1-2.2
		c0.3-0.8,0.7-1.7,1.1-2.8c0.5-1.4,0.9-2.7,1.1-3.8c0.3-1.2,0.4-2.2,0.3-3.1c-0.1-1.1-0.5-2-1.3-2.6c-0.7-0.6-1.6-0.9-2.8-0.9
		c-1.4,0-3.2,0.5-5.7,1.4c-1.9,0.8-4.4,1.6-7.3,2.5c-2.9,0.9-6.2,1.7-10,2.5c-3.7,0.7-7.8,1.1-12.3,1.1c-5.5,0-10-0.9-13.2-2.4
		c-3.1-1.5-5.3-3.8-6.6-6.6c-1.3-2.8-1.7-6.6-1.4-10.6c0.3-3.3,0.5-5.5,2.5-11.8l62.1-0.1c2.6,0,5.7-0.2,8.3-1.9
		c2.8-1.9,5.4-4,6.7-7.9l1.1-3.3c2.3-6.8,2.9-13.3,3.2-19.3C497.2,24.6,495.5,19.2,493.2,14.6z M433.9,28.5c2.8-2.5,6-4.5,9.5-6
		c3.4-1.5,7.2-2.3,11.2-2.3c7.9,0,12.9,2.1,15.1,6.9c2,4.3,1.7,10.9-0.2,17.2l-47.6,0.1c1.4-3.2,2.5-4.8,4.1-7.3
		C428.5,33.7,431,31,433.9,28.5z"/>
</g>
</svg>
