<?xml version="1.0" encoding="utf-8"?>
<!-- Generator: Adobe Illustrator 19.0.0, SVG Export Plug-In . SVG Version: 6.00 Build 0)  -->
<svg version="1.1" id="Layer_1" xmlns="http://www.w3.org/2000/svg" xmlns:xlink="http://www.w3.org/1999/xlink" x="0px" y="0px"
	 viewBox="0 0 492.8 155.5" style="enable-background:new 0 0 492.8 155.5;" xml:space="preserve">
<style type="text/css">
	.st0{fill:#CC00C2;}
</style>
<g id="XMLID_14_">
	<path id="XMLID_15_" class="st0" d="M171,73.8c0.7-5.2,0.4-9.9-1-13.9c-1.5-4.2-4.2-7.5-8.1-10c-3.8-2.4-9.1-3.7-15.7-3.7
		c-2.7,0-5.6,0.4-8.5,1.1c-2.9,0.7-6,1.8-9.3,3.4c-3.2,1.5-6.8,3.5-10.6,5.9c-2.6,1.6-5.3,3.5-8.2,5.7c-0.2-1.1-0.6-2.1-0.9-3.1
		c-1-2.7-2.6-5-4.7-7c-2.1-1.9-4.7-3.4-7.9-4.5c-3.1-1-6.7-1.5-10.9-1.5c-5.5,0-11.5,1.5-17.8,4.4c-3.9,1.8-8.2,4.3-12.7,7.4
		l1.1-3.1c0.4-1.1,0.5-2.2,0.2-3.2c-0.2-0.7-0.7-1.8-2-2.7c-0.9-0.6-2-1-3.5-1.2c-1.1-0.1-2.4-0.2-4.1-0.2c-1.7,0-3.1,0.1-4.2,0.2
		c-1.3,0.1-2.5,0.4-3.5,0.8c-1.1,0.5-2,1.1-2.7,1.8c-0.6,0.7-1.1,1.5-1.4,2.4l-34.1,94c-0.4,1.2-0.5,2.2-0.2,3.2
		c0.2,0.9,0.9,2,2.6,2.9c0.9,0.4,2,0.7,3.4,0.9c1.2,0.2,2.7,0.2,4.5,0.2c1.9,0,3.4-0.1,4.7-0.2c1.4-0.2,2.6-0.4,3.5-0.8
		c1.1-0.4,2-0.9,2.7-1.6c0.8-0.7,1.3-1.6,1.7-2.6l23.6-65c6.5-5.5,12.2-9.8,17-12.7c4.7-2.8,8.8-4.2,12.2-4.2c2.6,0,4.6,0.5,6,1.4
		c1.3,0.9,2.1,2.1,2.6,3.8c0.6,2,0.7,4.4,0.3,7.3c-0.4,3-1.3,6.5-2.6,10.2l-20.7,57.1c-0.4,1.2-0.5,2.2-0.2,3.2
		c0.2,0.9,0.9,2,2.6,2.9c0.9,0.4,2,0.7,3.4,0.9c1.2,0.2,2.7,0.2,4.4,0.2c1.8,0,3.3-0.1,4.6-0.2c1.4-0.2,2.6-0.4,3.6-0.8
		c1.1-0.4,2-0.9,2.8-1.6c0.8-0.7,1.3-1.6,1.7-2.6l23.6-65c6.6-5.5,12.3-9.8,17.1-12.7c4.6-2.8,8.7-4.2,12.1-4.2c2.6,0,4.6,0.5,6,1.4
		c1.3,0.9,2.2,2.1,2.6,3.8c0.6,2,0.6,4.4,0.2,7.2c-0.5,3.1-1.4,6.5-2.8,10.3l-20.7,57.1c-0.4,1.2-0.5,2.4-0.1,3.4
		c0.3,0.8,0.9,1.9,2.5,2.7c0.9,0.4,2,0.7,3.4,0.9c1.2,0.2,2.7,0.2,4.6,0.2c1.8,0,3.3-0.1,4.6-0.2c1.4-0.2,2.6-0.4,3.5-0.8
		c1.1-0.4,2-0.9,2.7-1.6c0.8-0.7,1.3-1.6,1.7-2.6L167,89.5C169,84,170.4,78.7,171,73.8z"/>
	<path id="XMLID_45_" class="st0" d="M492.6,6.4c-0.3-0.9-1-2.1-2.6-2.8c-0.8-0.4-1.8-0.6-3.1-0.9c-1.2-0.2-2.8-0.3-4.7-0.3
		c-1.8,0-3.4,0.1-4.7,0.3c-1.3,0.2-2.4,0.4-3.3,0.7c-1.3,0.4-2.3,1-3.1,1.9c-0.7,0.7-1.2,1.5-1.5,2.4L451.7,57
		c-2.2-2.7-4.6-5-7.2-6.7c-4.2-2.7-9.3-4.1-15.4-4.1c-7,0-13.7,1.3-20,3.9c-6.2,2.6-12.1,6.3-17.4,11.1
		c-5.3,4.8-10.1,10.6-14.3,17.3c-3.7,5.9-7,12.6-9.8,19.8c2.4-7.1,3.8-13.7,4.2-19.5c0.4-6.8-0.7-12.7-3.1-17.5
		c-2.5-5-6.6-8.8-12.1-11.4c-5.3-2.5-12.1-3.7-20.2-3.7c-8.3,0-16.2,1.4-23.4,4.1c-7.2,2.7-13.9,6.5-19.8,11.3
		c-5.9,4.8-11.2,10.6-15.6,17.3c-2.9,4.4-5.5,9.1-7.8,14c1.4-5.1,2.3-9.8,2.5-14.1c0.4-6.8-0.7-12.7-3.1-17.5
		c-2.5-5-6.6-8.8-12.1-11.4c-5.3-2.5-12.1-3.7-20.2-3.7c-8.3,0-16.2,1.4-23.4,4.1c-7.2,2.7-13.9,6.5-19.8,11.3
		c-5.9,4.8-11.2,10.6-15.6,17.3c-4.4,6.6-8.1,13.9-11,21.8c-3,8.2-4.7,15.6-5.1,22.1c-0.4,6.8,0.6,12.7,3.1,17.5
		c2.5,5,6.6,8.8,12.1,11.4c5.3,2.5,12.1,3.7,20.2,3.7c8.3,0,16.1-1.4,23.4-4.1c7.2-2.7,13.9-6.5,19.8-11.4
		c5.9-4.8,11.2-10.6,15.7-17.3c3-4.4,5.5-9.1,7.8-14c-1.4,5.1-2.3,9.9-2.6,14.2c-0.4,6.8,0.6,12.7,3.1,17.5c2.5,5,6.6,8.8,12.1,11.4
		c5.3,2.5,12.1,3.7,20.2,3.7c8.3,0,16.1-1.4,23.4-4.1c7.2-2.7,13.9-6.5,19.8-11.4c5.9-4.8,11.2-10.6,15.7-17.3
		c4-5.9,7.3-12.3,10-19.1c-2.1,6.1-3.5,12-4.3,17.6c-0.9,6.6-0.6,12.4,0.9,17.3c1.6,5.2,4.6,9.4,9.1,12.5c4.4,3,10.4,4.5,17.9,4.5
		c6.7,0,13.6-1.6,20.4-4.8c4.1-1.9,8.3-4.3,12.6-7.2l-1.2,3.4c-0.4,1.2-0.5,2.3-0.2,3.3c0.3,0.9,0.9,2.1,2.6,2.8
		c0.8,0.4,1.8,0.6,3,0.8c1.1,0.2,2.4,0.2,4,0.2c1.5,0,2.9-0.1,4-0.2c1.2-0.2,2.3-0.4,3.2-0.7c1.1-0.4,2-1,2.8-1.7
		c0.7-0.7,1.2-1.5,1.5-2.5L492.5,9.8C492.9,8.7,492.9,7.5,492.6,6.4z M397.6,134.8c-3.7,0-6.4-0.8-8.1-2.4c-1.7-1.7-2.8-3.9-3.3-6.8
		c-0.5-3.2-0.3-6.9,0.5-11c0.9-4.4,2.2-8.9,3.8-13.5c1.6-4.3,3.5-8.6,5.9-12.7c2.3-4.1,5-7.8,8-11c2.9-3.2,6.2-5.7,9.7-7.7
		c3.4-1.8,7-2.8,10.9-2.8c4,0,7.3,1.2,10,3.7c2.7,2.6,5.3,6.3,7.5,11.2l-13,35.7c-3.6,3.1-7,5.8-10.1,7.9c-3.2,2.2-6.1,4.1-8.7,5.5
		c-2.6,1.4-4.9,2.3-7,2.9C401.8,134.5,399.7,134.8,397.6,134.8z M287,126.2c-0.9-2.9-1-6.5-0.4-10.6c0.7-4.3,1.9-9,3.7-14
		c1.9-5.1,4.2-10,6.9-14.3c2.6-4.3,5.7-8,9.1-11.1c3.3-3.1,7-5.5,11-7.1c4-1.7,8.4-2.5,13.1-2.5c4.9,0,8.7,0.8,11.2,2.5
		c2.4,1.6,3.9,3.7,4.7,6.4c0.8,3,0.9,6.6,0.3,10.7c-0.7,4.3-1.9,9-3.7,13.9c-1.9,5.2-4.2,10.1-6.9,14.4c-2.6,4.3-5.6,8-9,11.1
		c-3.3,3-7,5.4-11.1,7.1c-4,1.7-8.4,2.5-13,2.5c-4.9,0-8.7-0.8-11.2-2.5C289.3,131,287.8,128.9,287,126.2z M187.4,126.2
		c-0.9-2.9-1-6.5-0.4-10.6c0.7-4.3,1.9-9,3.7-14c1.9-5.1,4.2-10,6.9-14.3c2.6-4.3,5.7-8,9.1-11.1c3.3-3.1,7-5.5,11-7.1
		c4-1.7,8.4-2.5,13.1-2.5c4.9,0,8.7,0.8,11.2,2.5c2.4,1.6,3.9,3.7,4.7,6.4c0.8,3,0.9,6.6,0.3,10.7c-0.7,4.3-1.9,9-3.7,13.9
		c-1.9,5.2-4.2,10.1-6.9,14.4c-2.6,4.3-5.6,8-9,11.1c-3.3,3-7,5.4-11.1,7.1c-4,1.7-8.4,2.5-13,2.5c-4.9,0-8.7-0.8-11.2-2.5
		C189.8,131,188.2,128.9,187.4,126.2z"/>
</g>
</svg>
