<?xml version="1.0" encoding="utf-8"?>
<!-- Generator: Adobe Illustrator 19.0.0, SVG Export Plug-In . SVG Version: 6.00 Build 0)  -->
<svg version="1.1" id="Layer_1" xmlns="http://www.w3.org/2000/svg" xmlns:xlink="http://www.w3.org/1999/xlink" x="0px" y="0px"
	 viewBox="0 0 789.9 614.1" style="enable-background:new 0 0 789.9 614.1;" xml:space="preserve">
<style type="text/css">
	.st0{fill:#CC00C2;}
	.st1{fill:#FFFFFF;}
</style>
<path id="XMLID_75_" class="st0" d="M59.4,581.9c65.7,58.5,233.3,49.4,283.1-129.7c0.6-2,1.1-4.1,1.7-6.2l74.4-240.8
	c19.7-21,37-37,51.5-47.8c8.3-6.1,15.9-10.4,22.6-12.6c0.2,5.7-0.2,12.1-1.1,19c-1.6,12.1-4.7,25.7-9.2,40.5l-69.1,223.8
	c-1.3,4.2-1.6,8-1,11.5c0.5,3.2,2.2,7.8,7.1,11.7l33.1,28.8c3.1,2.2,7.1,3.8,12.1,4.8l0.1,0c4,0.8,8.7,1.3,14.1,1.5
	c1.4,0,2.8,0.1,4.2,0.1c3.8,0,7.4-0.2,10.5-0.6l0.1,0c4.8-0.6,8.8-1.7,12.3-3.2c4-1.8,7.3-4.2,9.8-7c2.5-2.9,4.4-6.3,5.6-10.2
	l78.5-254.4c19.9-21,37.3-37,51.7-47.8c8.3-6.2,16-10.4,22.7-12.6c0.1,5.7-0.3,12-1.3,18.9c-1.8,12.2-5,25.9-9.6,40.7L594.1,434
	c-1.4,4.4-1.6,8.6-0.7,12.4c0.7,2.9,2.5,7.1,7,10.7l33.2,28.9c3.1,2.2,7,3.7,11.9,4.8l0.1,0c4,0.8,8.7,1.3,14.6,1.5
	c1.4,0,2.8,0.1,4.2,0.1c3.8,0,7.4-0.2,10.5-0.6l0.1,0c4.9-0.6,8.9-1.7,12.4-3.3c3.8-1.8,7-4.1,9.5-6.9c2.5-2.9,4.4-6.3,5.6-10.2
	l71.9-232.8c6.6-21.3,11.3-41.9,13.9-61.3c2.8-20.3,2.4-38.4-1.2-54.1c-3.8-16.7-11.6-30.5-23.2-41c-0.4-0.4-0.8-0.7-1.2-1
	c-0.1-0.1-0.2-0.2-0.3-0.3l-29-25.3c-0.4-0.4-0.8-0.7-1.2-1c-0.1-0.1-0.2-0.2-0.3-0.3C719.7,43.4,703,37.6,682,36.9
	c-0.8,0-1.7,0-2.5,0c-8,0-16.4,1.3-24.9,3.7c-9.1,2.6-19,7-29.3,13c-10.1,5.8-21.1,13.5-32.7,22.8c-1.7,1.4-3.5,2.9-5.3,4.3
	c-1.4-1.4-2.9-2.8-4.4-4.1l-30.5-26.7c-4.9-4.5-10.5-8.3-16.9-11.3c-9.7-4.6-21.3-7.1-34.6-7.6c-0.8,0-1.6,0-2.5,0
	c-12.6,0-26,3.1-40,9.3c-1-1.7-2.2-3.3-3.6-4.8L422.7,7.4c-3.2-3.1-7.6-5.2-13-6.2c-3.5-0.6-7.9-1-12.9-1.2C395.1,0,393.5,0,392,0
	c-3.3,0-6.2,0.1-8.8,0.4c-4.6,0.5-8.9,1.7-12.5,3.6c-4,2.1-7.2,4.7-9.5,7.8c-1.9,2.6-3.5,5.8-4.6,9.3l-25.2,81l-0.7-0.2l-89.1,284.4
	C127.8,359.8-18.6,407.3,1.9,511.5c3.3,16.9,13,31.8,26.9,43.7L59.4,581.9z"/>
<path id="XMLID_3_" class="st1" d="M754.9,95.2c-3.8-16.7-11.6-30.5-23.2-41C719.7,43.4,703,37.6,682,36.9c-0.8,0-1.7,0-2.5,0
	c-8,0-16.4,1.3-24.9,3.7c-9.1,2.6-19,7-29.3,13c-10.1,5.8-21.1,13.5-32.7,22.8c-5.8,4.6-11.9,9.8-18.2,15.5
	c-0.4-1.9-0.8-3.7-1.2-5.5c-2.6-10.7-7.1-20.2-13.2-28.2c-6.3-8.3-14.5-14.9-24.5-19.6c-9.7-4.6-21.3-7.1-34.6-7.6
	c-0.8,0-1.6,0-2.5,0c-16.7,0-34.9,5.5-54.1,16.4c-9,5.1-18.6,11.7-28.7,19.7l1.2-3.8c1.3-4.1,12.6-41,12-44.6
	c-0.7-4.2-2.8-8-5.9-11.2c-3.2-3.2-7.6-5.3-13.1-6.3c-3.5-0.6-7.9-1-12.9-1.2C395.1,0,393.5,0,392,0c-3.3,0-6.2,0.1-8.8,0.4
	c-4.6,0.5-8.9,1.7-12.5,3.6c-4,2.1-7.2,4.7-9.5,7.8c-1.9,2.6-3.5,5.8-4.6,9.3l-25.2,81l-0.7-0.2l-89.1,284.4
	C127.8,359.8-18.6,407.3,1.9,511.5c19.3,97.7,248.8,127.7,308.5-87.4c0.6-2,1.1-4.1,1.7-6.2l74.4-240.8c19.7-21,37-37,51.5-47.8
	c12.6-9.4,23.8-14.3,32.3-14.3c0.2,0,0.5,0,0.7,0c6.2,0.2,10.8,1.7,13.8,4.6c3.3,3.2,5.6,8.1,6.8,14.7c1.4,8.1,1.4,18-0.1,29.5
	c-1.6,12.1-4.7,25.7-9.2,40.5l-69.1,223.8c-1.3,4.2-1.6,8-1,11.5c0.6,3.5,2.4,8.4,8.2,12.5c3.1,2.2,7.1,3.8,12.1,4.8l0.1,0
	c4,0.8,8.7,1.3,14.1,1.5c1.4,0,2.8,0.1,4.2,0.1c3.8,0,7.4-0.2,10.5-0.6l0.1,0c4.8-0.6,8.8-1.7,12.3-3.2c4-1.8,7.3-4.2,9.8-7
	c2.5-2.9,4.4-6.3,5.6-10.2l78.5-254.4c19.9-21,37.3-37,51.7-47.8c12.5-9.4,23.7-14.3,32.1-14.3c0.2,0,0.5,0,0.7,0
	c6.3,0.2,10.9,1.7,14,4.7c3.4,3.2,5.7,8.1,6.9,14.6c1.4,8,1.3,17.9-0.4,29.3c-1.8,12.2-5,25.9-9.6,40.7L594.1,434
	c-1.4,4.4-1.6,8.6-0.7,12.4c0.8,3.2,2.8,7.8,8.2,11.6c3.1,2.2,7,3.7,11.9,4.8l0.1,0c4,0.8,8.7,1.3,14.6,1.5c1.4,0,2.8,0.1,4.2,0.1
	c3.8,0,7.4-0.2,10.5-0.6l0.1,0c4.9-0.6,8.9-1.7,12.4-3.3c3.8-1.8,7-4.1,9.5-6.9c2.5-2.9,4.4-6.3,5.6-10.2l71.9-232.8
	c6.6-21.3,11.3-41.9,13.9-61.3C758.9,129,758.5,110.8,754.9,95.2z"/>
</svg>
