<?xml version="1.0" encoding="utf-8"?>
<!-- Generator: Adobe Illustrator 19.0.0, SVG Export Plug-In . SVG Version: 6.00 Build 0)  -->
<svg version="1.1" id="Layer_1" xmlns="http://www.w3.org/2000/svg" xmlns:xlink="http://www.w3.org/1999/xlink" x="0px" y="0px"
	 viewBox="0 0 1746.4 614.1" style="enable-background:new 0 0 1746.4 614.1;" xml:space="preserve">
<style type="text/css">
	.st0{fill:#CC00C2;}
	.st1{fill:#FFFFFF;}
</style>
<g id="XMLID_1_">
	<g id="XMLID_69_">
		<path id="XMLID_75_" class="st0" d="M59.4,581.9c65.7,58.5,233.3,49.4,283.1-129.7c0.6-2,1.1-4.1,1.7-6.2l74.4-240.8
			c19.7-21,37-37,51.5-47.8c8.3-6.1,15.9-10.4,22.6-12.6c0.2,5.7-0.2,12.1-1.1,19c-1.6,12.1-4.7,25.7-9.2,40.5l-69.1,223.8
			c-1.3,4.2-1.6,8-1,11.5c0.5,3.2,2.2,7.8,7.1,11.7l33.1,28.8c3.1,2.2,7.1,3.8,12.1,4.8l0.1,0c4,0.8,8.7,1.3,14.1,1.5
			c1.4,0,2.8,0.1,4.2,0.1c3.8,0,7.4-0.2,10.5-0.6l0.1,0c4.8-0.6,8.8-1.7,12.3-3.2c4-1.8,7.3-4.2,9.8-7c2.5-2.9,4.4-6.3,5.6-10.2
			l78.5-254.4c19.9-21,37.3-37,51.7-47.8c8.3-6.2,16-10.4,22.7-12.6c0.1,5.7-0.3,12-1.3,18.9c-1.8,12.2-5,25.9-9.6,40.7L594.1,434
			c-1.4,4.4-1.6,8.6-0.7,12.4c0.7,2.9,2.5,7.1,7,10.7l33.2,28.9c3.1,2.2,7,3.7,11.9,4.8l0.1,0c4,0.8,8.7,1.3,14.6,1.5
			c1.4,0,2.8,0.1,4.2,0.1c3.8,0,7.4-0.2,10.5-0.6l0.1,0c4.9-0.6,8.9-1.7,12.4-3.3c3.8-1.8,7-4.1,9.5-6.9c2.5-2.9,4.4-6.3,5.6-10.2
			l71.9-232.8c6.6-21.3,11.3-41.9,13.9-61.3c2.8-20.3,2.4-38.4-1.2-54.1c-3.8-16.7-11.6-30.5-23.2-41c-0.4-0.4-0.8-0.7-1.2-1
			c-0.1-0.1-0.2-0.2-0.3-0.3l-29-25.3c-0.4-0.4-0.8-0.7-1.2-1c-0.1-0.1-0.2-0.2-0.3-0.3C719.7,43.4,703,37.6,682,36.9
			c-0.8,0-1.7,0-2.5,0c-8,0-16.4,1.3-24.9,3.7c-9.1,2.6-19,7-29.3,13c-10.1,5.8-21.1,13.5-32.7,22.8c-1.7,1.4-3.5,2.9-5.3,4.3
			c-1.4-1.4-2.9-2.8-4.4-4.1l-30.5-26.7c-4.9-4.5-10.5-8.3-16.9-11.3c-9.7-4.6-21.3-7.1-34.6-7.6c-0.8,0-1.6,0-2.5,0
			c-12.6,0-26,3.1-40,9.3c-1-1.7-2.2-3.3-3.6-4.8L422.7,7.4c-3.2-3.1-7.6-5.2-13-6.2c-3.5-0.6-7.9-1-12.9-1.2C395.1,0,393.5,0,392,0
			c-3.3,0-6.2,0.1-8.8,0.4c-4.6,0.5-8.9,1.7-12.5,3.6c-4,2.1-7.2,4.7-9.5,7.8c-1.9,2.6-3.5,5.8-4.6,9.3l-25.2,81l-0.7-0.2
			l-89.1,284.4C127.8,359.8-18.6,407.3,1.9,511.5c3.3,16.9,13,31.8,26.9,43.7L59.4,581.9z"/>
		<path id="XMLID_74_" class="st0" d="M926.9,58.1c-0.6-0.5-1.2-1.1-1.9-1.6c-3.2-2.4-7.2-4-12.3-4.7c-3.7-0.5-8.1-0.8-13.6-0.8
			c-0.7,0-1.4,0-2.1,0c-4.5,0-8.5,0.2-11.8,0.5c-4.7,0.5-8.9,1.6-12.4,3.4c-3.9,1.9-7,4.3-9.2,7c-2.1,2.6-3.7,5.7-4.7,9.3l-66.6,221
			c-8.1,27-13.4,50.3-15.6,69.4c-2.3,19.9-1.4,37.7,2.7,53c4.1,15.6,12,28.3,23.3,37.9l33.7,29.4c12.2,9.7,29.1,14.8,50.2,15
			c0.3,0,0.6,0,0.9,0c17.6,0,36.6-5.6,56.6-16.6c5.6-3.1,11.4-6.8,17.5-10.9c0.2,0.1,0.3,0.3,0.5,0.4l20,17.5
			c2.8,2.1,6.4,3.6,10.9,4.5c3.6,0.7,8,1.1,13.4,1.1c0.4,0,0.8,0,1.3,0c4.4,0,8.4-0.3,11.9-0.8c4.3-0.7,7.9-1.8,11-3.3
			c3.7-1.8,6.7-4.1,8.9-6.9c2.1-2.6,3.7-5.7,4.7-9.3l109.7-364.2c1.3-4.4,1.4-8.6,0.2-12.4c-1.2-3.6-3.4-6.7-6.5-9.3
			c-0.1,0-0.1-0.1-0.2-0.1c-0.4-0.4-0.9-0.8-1.3-1.2l-30.5-26.7c-3.1-2.6-7.2-4.2-12.5-4.9c-3.7-0.5-8.2-0.8-13.6-0.8
			c-0.8,0-1.5,0-2.2,0c-4.7,0-8.6,0.2-11.9,0.5c-4.6,0.5-8.7,1.6-12.2,3.4c-3.9,1.9-7,4.3-9.2,7c-2.1,2.6-3.7,5.7-4.7,9.3l-75.9,252
			l-0.3,0.3c-19.8,21-37.5,37.2-52.7,48c-12.1,8.7-22.9,13.7-32.3,15c-0.6-6.1-0.4-13.2,0.5-21c1.4-12.1,5.2-28.6,11.4-49.2
			l63.9-212c1.3-4.2,1.4-8.1,0.5-11.7c-0.7-2.7-2.4-6.5-6.7-9.9c-0.5-0.4-1-0.9-1.5-1.3L926.9,58.1z"/>
		<path id="XMLID_73_" class="st0" d="M1378,71.1c-0.6-0.6-1.3-1.1-1.9-1.7c-4.1-3.5-9.3-6.7-15.5-9.6c-5.9-2.8-12.8-5.2-20.5-7
			c-7.8-1.9-15.9-2.9-24.2-3c-0.6,0-1.2,0-1.8,0c-17.7,0-34.5,3.1-49.8,9.2c-15.6,6.2-29.8,14.7-42.2,25.1
			c-12.3,10.5-23,22.8-31.8,36.8c-8.7,13.8-15.5,28.6-20,43.8c-5.2,17.4-7.6,32.7-7,45.6c0.6,13.2,3.4,24.8,8.2,34.6
			c4.8,9.7,11.1,18.1,18.9,25l31.8,27.8c0.1,0.1,0.1,0.1,0.2,0.2c7.1,6.3,14.7,12,22.6,16.9c3.9,2.5,7.8,4.9,11.7,7.3
			c0.7,1.6,1.3,3.3,1.8,5c1.3,4.8,0.8,11.6-1.6,19.6c-2.7,8.8-6.2,16.4-10.5,22.7c-4.2,6.1-9.2,11.2-14.7,15.1c-5.6,4-11.9,7-18.5,9
			c-6.4,1.9-13.4,2.9-20.7,2.9c-0.3,0-0.6,0-0.9,0c-10-0.1-18.3-1.7-24.7-4.8c-3.7-1.8-7.1-3.6-10.2-5.6c-0.1-0.1-0.2-0.2-0.4-0.3
			c-0.5-0.4-1-0.9-1.5-1.3l-18.3-16c-0.5-0.4-1-0.9-1.5-1.3c-3-2.8-7.9-6.4-13.7-6.4l-0.2,0c-3.6,0-7,1.1-10.2,3.1
			c-2.9,1.9-5.4,4.6-7.5,8.3c-1.6,2.6-3.1,5.9-4.8,9.9c-1.6,3.9-3.3,8.5-4.9,14.1c-2.8,9.2-4.4,16.5-4.9,22.2
			c-0.6,7.2,0.3,13.1,2.9,17.8c2.1,4,5.7,8,10.7,12.4c0.1,0.1,0.2,0.2,0.4,0.3l30.5,26.7c0.4,0.3,0.8,0.7,1.2,1
			c4.6,4,10.5,7.8,17.5,11.4c7,3.5,15.1,6.5,24.3,8.8c9.2,2.3,19.4,3.6,30.1,3.7c0.6,0,1.2,0,1.8,0c16.7,0,33-2.6,48.6-7.7
			c16.2-5.3,31.3-13.4,45-24c13.7-10.6,25.8-23.8,36.2-39.2c10.3-15.4,18.5-33.1,24.4-52.7c5.1-16.9,7.3-31.8,6.6-44.5
			c-0.7-12.9-3.6-24.4-8.5-33.9c-4.9-9.5-11-17.3-19-24c0,0-0.5-0.4-0.5-0.4l-28.9-25.3c0,0,0,0,0,0c-0.5-0.4-1-0.9-1.5-1.3
			c0,0,0,0,0,0c-0.5-0.4-1-0.9-1.5-1.3c-7.2-6-14.9-11.6-22.8-16.5c-4.1-2.6-8.2-5.1-12.2-7.6c-0.8-1.7-1.4-3.5-2-5.4
			c-1.4-4.9-0.8-11.9,1.7-20.2c2-6.5,4.8-12.6,8.3-18.1c3.5-5.4,7.7-10.2,12.4-14.1c4.6-3.8,10.1-6.8,16.2-8.8c6-2,12.7-3,19.9-3
			l0.9,0c8.2,0.1,15.1,1.4,20.4,3.8c4.6,2.1,8.6,4.3,12,6.5l13.1,11.4c0.5,0.4,1,0.9,1.5,1.3c2.7,2.5,6.9,5.6,12.3,5.7l0.2,0
			c3.5,0,6.9-1.1,10-3.4c2.5-1.8,4.8-4.3,7-7.7c1.8-2.8,3.5-6.1,5.1-10.2c1.4-3.6,2.9-8,4.4-12.8c1.4-4.7,2.4-8.7,3.1-12
			c0.6-3.1,1.1-5.8,1.4-8c0.5-3.1,0.5-6.1,0.1-8.9c-0.5-3.4-2-6.9-4.6-10.6c-2-2.9-5-6-8.9-9.4c-0.5-0.4-1-0.9-1.5-1.3L1378,71.1z"
			/>
		<path id="XMLID_206_" class="st0" d="M1453,478.5c0.5,0.5,1,0.9,1.5,1.3c4.6,4.2,9.7,7.9,15.3,11.1c16.7,9.6,38,14.7,63.2,15
			c0.8,0,1.6,0.1,2.4,0.1c0,0,0,0,0,0c13.2,0,26.3-1.3,38.9-3.8c13-2.5,24.8-5.5,35.1-8.8c10.7-3.4,19.4-6.8,26.7-10.4
			c10.2-5.1,13.4-7.5,15.4-9.3c2.1-2,4.1-4.1,5.8-6.4c1.8-2.4,3.4-5,4.7-7.9c1-2.3,2.1-4.8,3.2-7.7c1.1-2.9,2.2-6.3,3.4-10
			c1.6-5.2,2.7-9.7,3.5-13.5c0.9-4.4,1.3-8.1,1.2-11.1c-0.2-6.4-2.7-10.5-4.8-12.9l-32.8-28.7c-3.2-3.1-7.5-4.9-12.1-5l-0.2,0
			c-4.6,0-10.1,1.7-17.9,5.4c-5.5,2.6-12.5,5.6-20.8,8.9c-8.1,3.2-17.6,6.1-28.3,8.7c-9.7,2.3-20.4,3.5-31.9,3.5c-0.6,0-1.3,0-1.9,0
			c-6.3-0.1-11.9-0.6-17-1.6c-2.7-9.5-3.4-21-2-34.4c1.4-12.8,4.2-27.1,8.5-42.8l175.4,2c8.1,0,16.2-3.2,23.9-9.4
			c7.6-6.2,13.2-15.6,17.2-28.9l3.7-12.1c7.4-24.6,12-48.1,13.7-69.9c1.8-22.7-0.3-43-6.2-60.3c-5.5-16.1-14.5-29.5-26.8-39.9
			l-37-31.9c-14.9-10.9-35-16.6-59.6-16.9c-0.6,0-1.1,0-1.7,0c-21.9,0-43.4,4.9-64,14.6c-20.8,9.7-40.4,23.9-58.4,42.2
			c-17.8,18-34,40.3-48.3,66.1c-14.2,25.6-26.2,54.8-35.9,86.9c-10.2,33.8-16.1,64-17.6,89.8c-1.6,26.8,1.5,49.8,9.2,68.2
			c5.7,13.8,13.9,25.3,24.5,34.4L1453,478.5z M1628.6,216.4l-78.9-0.9c6.4-10.7,13.6-20.3,21.3-28.5c8.5-9.1,18-16.4,28.2-21.8
			c9.4-5,19.1-7.4,29.5-7.4l0.7,0c1.7,0,3.3,0.1,4.9,0.2C1637.3,172.8,1635.4,192.4,1628.6,216.4z"/>
	</g>
	<g id="XMLID_68_">
		<path id="XMLID_3_" class="st1" d="M754.9,95.2c-3.8-16.7-11.6-30.5-23.2-41C719.7,43.4,703,37.6,682,36.9c-0.8,0-1.7,0-2.5,0
			c-8,0-16.4,1.3-24.9,3.7c-9.1,2.6-19,7-29.3,13c-10.1,5.8-21.1,13.5-32.7,22.8c-5.8,4.6-11.9,9.8-18.2,15.5
			c-0.4-1.9-0.8-3.7-1.2-5.5c-2.6-10.7-7.1-20.2-13.2-28.2c-6.3-8.3-14.5-14.9-24.5-19.6c-9.7-4.6-21.3-7.1-34.6-7.6
			c-0.8,0-1.6,0-2.5,0c-16.7,0-34.9,5.5-54.1,16.4c-9,5.1-18.6,11.7-28.7,19.7l1.2-3.8c1.3-4.1,12.6-41,12-44.6
			c-0.7-4.2-2.8-8-5.9-11.2c-3.2-3.2-7.6-5.3-13.1-6.3c-3.5-0.6-7.9-1-12.9-1.2C395.1,0,393.5,0,392,0c-3.3,0-6.2,0.1-8.8,0.4
			c-4.6,0.5-8.9,1.7-12.5,3.6c-4,2.1-7.2,4.7-9.5,7.8c-1.9,2.6-3.5,5.8-4.6,9.3l-25.2,81l-0.7-0.2l-89.1,284.4
			C127.8,359.8-18.6,407.3,1.9,511.5c19.3,97.7,248.8,127.7,308.5-87.4c0.6-2,1.1-4.1,1.7-6.2l74.4-240.8c19.7-21,37-37,51.5-47.8
			c12.6-9.4,23.8-14.3,32.3-14.3c0.2,0,0.5,0,0.7,0c6.2,0.2,10.8,1.7,13.8,4.6c3.3,3.2,5.6,8.1,6.8,14.7c1.4,8.1,1.4,18-0.1,29.5
			c-1.6,12.1-4.7,25.7-9.2,40.5l-69.1,223.8c-1.3,4.2-1.6,8-1,11.5c0.6,3.5,2.4,8.4,8.2,12.5c3.1,2.2,7.1,3.8,12.1,4.8l0.1,0
			c4,0.8,8.7,1.3,14.1,1.5c1.4,0,2.8,0.1,4.2,0.1c3.8,0,7.4-0.2,10.5-0.6l0.1,0c4.8-0.6,8.8-1.7,12.3-3.2c4-1.8,7.3-4.2,9.8-7
			c2.5-2.9,4.4-6.3,5.6-10.2l78.5-254.4c19.9-21,37.3-37,51.7-47.8c12.5-9.4,23.7-14.3,32.1-14.3c0.2,0,0.5,0,0.7,0
			c6.3,0.2,10.9,1.7,14,4.7c3.4,3.2,5.7,8.1,6.9,14.6c1.4,8,1.3,17.9-0.4,29.3c-1.8,12.2-5,25.9-9.6,40.7L594.1,434
			c-1.4,4.4-1.6,8.6-0.7,12.4c0.8,3.2,2.8,7.8,8.2,11.6c3.1,2.2,7,3.7,11.9,4.8l0.1,0c4,0.8,8.7,1.3,14.6,1.5c1.4,0,2.8,0.1,4.2,0.1
			c3.8,0,7.4-0.2,10.5-0.6l0.1,0c4.9-0.6,8.9-1.7,12.4-3.3c3.8-1.8,7-4.1,9.5-6.9c2.5-2.9,4.4-6.3,5.6-10.2l71.9-232.8
			c6.6-21.3,11.3-41.9,13.9-61.3C758.9,129,758.5,110.8,754.9,95.2z"/>
		<path id="XMLID_71_" class="st1" d="M854.5,469c-21.1-0.2-38-5.3-50.2-15c-12.2-9.7-20.6-22.9-25-39.3c-4.1-15.3-5-33.1-2.7-53
			c2.2-19.1,7.4-42.5,15.6-69.4l66.6-221c1.1-3.5,2.7-6.7,4.7-9.3c2.2-2.8,5.3-5.1,9.2-7c3.6-1.7,7.7-2.9,12.4-3.4
			c3.3-0.4,7.3-0.5,11.8-0.5c0.7,0,1.4,0,2.1,0c5.5,0.1,10,0.3,13.6,0.8c5.1,0.7,9.2,2.2,12.3,4.7c4.5,3.5,6.3,7.5,7,10.2
			c0.9,3.6,0.7,7.5-0.5,11.7l-63.9,212c-6.2,20.6-10,37.1-11.4,49.2c-1.3,11.4-1,21.2,0.8,28.9c1.6,6.7,4.4,11.7,8.6,15.2
			c4,3.4,9.6,5.1,17.1,5.2l0.3,0c10.4,0,22.9-5.2,37.1-15.3c15.2-10.9,32.9-27,52.7-48l0.3-0.3l75.9-252c1.1-3.5,2.7-6.7,4.7-9.3
			c2.2-2.8,5.3-5.1,9.2-7c3.6-1.7,7.7-2.9,12.2-3.4c3.3-0.4,7.2-0.5,11.9-0.5c0.7,0,1.4,0,2.2,0c5.5,0.1,10,0.3,13.6,0.8
			c5.3,0.7,9.3,2.3,12.5,4.9c3.2,2.6,5.4,5.7,6.5,9.3c1.2,3.8,1.2,7.9-0.2,12.4l-109.7,364.2c-1.1,3.5-2.7,6.7-4.7,9.3
			c-2.2,2.8-5.2,5.1-8.9,6.9c-3.2,1.5-6.8,2.6-11,3.3c-3.5,0.5-7.5,0.8-11.9,0.8c-0.4,0-0.8,0-1.3,0c-5.5-0.1-9.9-0.4-13.4-1.1
			c-4.5-0.9-8.1-2.4-10.9-4.5c-3.8-2.9-6.3-7-6.8-11.6c-0.4-3.1,0-6.4,1.1-10.2l2.9-9.6l-5,3.9c-10.6,8.3-20.7,15.2-30.2,20.4
			c-20,11-39,16.6-56.6,16.6C855.2,469,854.9,469,854.5,469z"/>
		<path id="XMLID_70_" class="st1" d="M1176.3,472.4c-0.6,0-1.2,0-1.8,0c-10.8-0.1-20.9-1.4-30.1-3.7c-9.2-2.3-17.3-5.3-24.3-8.8
			c-7-3.6-12.9-7.4-17.5-11.4c-5.1-4.4-8.6-8.4-10.7-12.4c-2.6-4.8-3.5-10.6-2.9-17.8c0.5-5.7,2.1-12.9,4.9-22.2
			c1.7-5.6,3.3-10.2,4.9-14.1c1.7-4,3.3-7.2,4.8-9.9c2.2-3.7,4.6-6.4,7.5-8.3c3.2-2.1,6.6-3.1,10.2-3.1l0.2,0
			c8.1,0.1,14.3,6.9,16.4,9.1c3,3.3,7,7.1,11.9,11.1c4.5,3.8,10.4,7.4,17.3,10.7c6.4,3,14.7,4.6,24.7,4.8c0.3,0,0.6,0,0.9,0
			c7.3,0,14.2-1,20.7-2.9c6.7-2,12.9-5,18.5-9c5.5-3.9,10.5-9,14.7-15.1c4.3-6.2,7.8-13.9,10.5-22.7c2.4-8,3-14.8,1.6-19.6
			c-1.5-5.3-4-9.9-7.9-14.1c-4.3-4.7-9.6-8.9-15.7-12.6c-7.2-4.4-14.6-8.9-21.9-13.5c-7.9-5-15.5-10.7-22.6-16.9
			c-7.8-6.8-14.1-15.2-18.9-25c-4.8-9.8-7.6-21.4-8.2-34.6c-0.6-12.9,1.7-28.3,7-45.6c4.6-15.2,11.3-29.9,20-43.8
			c8.8-13.9,19.5-26.3,31.8-36.8c12.3-10.5,26.5-18.9,42.2-25.1c15.3-6.1,32.1-9.2,49.8-9.2c0.6,0,1.2,0,1.8,0
			c8.3,0.1,16.4,1.1,24.2,3c7.7,1.9,14.6,4.2,20.5,7c6.1,2.9,11.3,6.1,15.5,9.6c4.2,3.5,7.2,6.7,9.3,9.7c2.6,3.7,4.1,7.2,4.6,10.6
			c0.4,2.8,0.4,5.7-0.1,8.9c-0.3,2.2-0.8,4.9-1.4,8c-0.7,3.4-1.7,7.3-3.1,12c-1.5,4.9-2.9,9.2-4.4,12.8c-1.6,4.1-3.3,7.4-5.1,10.2
			c-2.2,3.4-4.5,6-7,7.7c-3.2,2.2-6.5,3.4-10,3.4l-0.2,0c-7.6-0.1-13.1-6.3-14.8-8.3c-2.1-2.4-5.2-5.1-9.2-8.1
			c-3.9-2.9-9-5.8-14.9-8.5c-5.3-2.4-12.1-3.7-20.4-3.8l-0.9,0c-7.2,0-13.8,1-19.9,3c-6.1,2.1-11.6,5-16.2,8.8
			c-4.8,3.9-8.9,8.6-12.4,14.1c-3.5,5.5-6.3,11.6-8.3,18.1c-2.5,8.2-3.1,15.2-1.7,20.2c1.5,5.5,4.1,10.2,8,14.4
			c4.3,4.7,9.7,9,16,12.9c7.1,4.3,14.6,9,22.2,13.7c7.9,4.9,15.5,10.5,22.8,16.5c8,6.7,14.6,14.9,19.5,24.4c4.9,9.6,7.8,21,8.5,33.9
			c0.7,12.7-1.5,27.6-6.6,44.5c-5.9,19.6-14.1,37.3-24.4,52.7c-10.3,15.5-22.5,28.6-36.2,39.2c-13.7,10.6-28.9,18.7-45,24
			C1209.4,469.8,1193,472.4,1176.3,472.4z"/>
		<path id="XMLID_85_" class="st1" d="M1707.6,111.7c-6.2-18.2-16.9-32.9-31.8-43.9c-14.9-10.9-35-16.6-59.6-16.9
			c-0.6,0-1.1,0-1.7,0c-21.9,0-43.4,4.9-64,14.6c-20.8,9.7-40.4,23.9-58.4,42.2c-17.8,18-34,40.3-48.3,66.1
			c-14.2,25.6-26.2,54.8-35.9,86.9c-10.2,33.8-16.1,64-17.6,89.8c-1.6,26.8,1.5,49.8,9.2,68.2c8,19.3,20.9,34.1,38.2,44.1
			c16.7,9.6,38,14.7,63.2,15c0.8,0,1.6,0.1,2.4,0.1c0,0,0,0,0,0c13.2,0,26.3-1.3,38.9-3.8c13-2.5,24.8-5.5,35.1-8.8
			c10.7-3.4,19.4-6.8,26.7-10.4c10.2-5.1,13.4-7.5,15.4-9.3c2.1-2,4.1-4.1,5.8-6.4c1.8-2.4,3.4-5,4.7-7.9c1-2.3,2.1-4.8,3.2-7.7
			c1.1-2.9,2.2-6.3,3.4-10c1.6-5.2,2.7-9.7,3.5-13.5c0.9-4.4,1.3-8.1,1.2-11.1c-0.2-6.4-2.7-10.5-4.8-12.9
			c-3.3-3.6-7.9-5.6-12.9-5.7l-0.2,0c-4.6,0-10.1,1.7-17.9,5.4c-5.5,2.6-12.5,5.6-20.8,8.9c-8.1,3.2-17.6,6.1-28.3,8.7
			c-9.7,2.3-20.4,3.5-31.9,3.5c-0.6,0-1.3,0-1.9,0c-14.4-0.2-25.6-2.8-33.4-7.7c-7.3-4.7-12.2-11.2-15.1-20
			c-3.2-9.8-4.1-22-2.5-36.2c1.4-12.8,4.2-27.1,8.5-42.8l175.4,2c8.1,0,16.2-3.2,23.9-9.4c7.6-6.2,13.2-15.6,17.2-28.9l3.7-12.1
			c7.4-24.6,12-48.1,13.7-69.9C1715.5,149.3,1713.5,129,1707.6,111.7z M1539.1,158.9c8.5-9.1,18-16.4,28.2-21.8
			c9.4-5,19.1-7.4,29.5-7.4l0.7,0c24.9,0.3,31.9,11.7,35.1,21.5c5.1,15.6,3.8,37.5-4.1,65.1l-124.8-1.4c3.3-7.9,7.1-15.5,11.3-23
			C1522.2,179.4,1530.3,168.3,1539.1,158.9z"/>
	</g>
</g>
</svg>
